<svg xmlns="http://www.w3.org/2000/svg" viewBox="0 0 689.64 692.21"><defs><style>.cls-1{fill:#d4a373;}.cls-2{fill:#e9edc9;}.cls-3{fill:#ccd5ae;}.cls-4{fill:#c3ce97;}.cls-5{fill:none;stroke:#333;stroke-miterlimit:10;stroke-width:32px;}</style></defs><g id="Calque_2" data-name="Calque 2"><g id="Calque_1" data-name="Calque 1"><path class="cls-1" d="M339.38,691.83C136.79,684.88-11.71,515.5.73,322.3c11.7-181.91,167.38-331,359.84-321,189.29,9.87,332.82,160,328.51,355C684.71,553.83,513.42,696,339.38,691.83ZM407.79,372,544,354.42c-4.44,3.44-9.1,6.78-14.3,8.25-18,5.1-36,10-54.21,14.11-23.64,5.34-48,7.85-70.05,19.12-8.07,4.12-13.33,9.59-16.4,18.37-12.2,34.9-9.34,69.72-1.14,104.8a48.56,48.56,0,0,0,23.15,31.72c10.07,6,20.71,11.77,31.86,15.16,30.42,9.25,61.22,17.28,91.95,25.48,2.63.7,6.81.13,8.67-1.58,28.56-26.35,56-53.52,75.06-88.16,28.92-52.65,41.11-109,40-168.68-.79-42.49-12.45-82.44-29.26-120.76-16-36.48-40.07-67.65-69.45-94.76-74.71-68.93-162-98.45-263-82.58C238.55,44.09,187.27,69.57,141,106.58c-38.83,31.07-66.59,69.89-85.7,114.9-23.67,55.76-29.28,114.12-20.17,174,4.66,30.64,12.15,61.09,26.52,88,21.31,40,47.66,77.18,84.37,105.37,2.45,1.89,6.71,3.27,9.53,2.55,31.46-8.13,62.95-16.18,94.12-25.32,29.52-8.66,51.79-26.37,59.44-57.37,6-24.36,7.36-49.36,2.66-74.34-6.88-36.51-19.13-50.07-56.14-55.69-22.61-3.44-45.88-2.38-68.79-4.13-10.66-.82-21.17-3.55-31.74-5.4l.54-3.61c40.27-3.4,80.41-11.77,123.75-1-43.09-36.15-80.19-73.63-97.58-126.07l101.16,91c-1.66-14.28-3.53-30.28-5.4-46.27l1.7-.21c17.18,36.94,34.36,73.88,51.9,111.56,1.11-41.13,1.8-80.87,3.43-120.57a403.32,403.32,0,0,1,5.48-53.87c2.13-11.91,7.7-23.21,11.73-34.78l2.19.79q1.94,130.07,3.86,260.13c1.8-3.2,2-6.43,2.25-9.66,1.86-24.86,6.05-49.56,21.42-69.65,14.88-19.46,32-37.32,49.15-54.92,15.26-15.67,31.93-30,47.85-45,7-6.59,13.68-13.5,20.5-20.27l3.47,2.7c-8.15,13.56-15,28.14-24.72,40.46-16.06,20.34-34.05,39.14-51,58.74C419.92,356.62,413.54,364.93,407.79,372Zm-44.13,172.1-3.32,2.48c5.84,13,10.83,26.45,17.69,38.86C391.77,610.32,414,626.84,437.19,642c10.4,6.78,12.87,6.56,25.53-1.56C418.92,619,382.61,590.48,363.66,544.13Zm61.2,40.11-1.2.66c1.85,1.14,3.94,2,5.5,3.46,16.75,15.64,38.23,22.6,58.45,31.85,9.22,4.21,13.9,2.8,21.84-5.83ZM218.63,635.16c14.47,7.2,15.68,7.76,21.7,3,13.53-10.81,26.87-21.87,39.89-33.28,4-3.55,6.85-8.53,9.91-12.46Zm112.86-59.24-1.9-.68c-8.8,14.51-16.32,30-26.75,43.23-10.32,13.06-23.58,23.79-35.55,35.55,6,1.54,14,2.84,16.87-.4,12-13.47,23.43-27.64,33-42.87C323.71,600.26,326.82,587.61,331.49,575.92Zm74.77,81.61c-16-15.26-32-30.52-48.76-46.48,1.77,5.55,2.56,11.7,5.54,16.48,5.16,8.29,12.07,15.48,17.55,23.6C387.56,661.47,396.22,662.21,406.26,657.53Zm-226-42.23c6.85,6.2,12.95,8.92,21.26,3.89,8.91-5.41,18.51-9.68,27.64-14.75,3.56-2,6.67-4.78,10-7.21L238,595.49Zm142.6,46.93h22.66c-3.87-9-7.23-16.75-11.53-26.74Z"/><path class="cls-2" d="M341.16,65.52c36.38,35.08,39,80.3,3.89,115.26-10.19-19.3-27.07-35.93-24.65-60.56C322.38,100.06,332.63,83.32,341.16,65.52Z"/><path class="cls-2" d="M381,204.79c-.09-45.26,18.25-79.64,58.36-100.71C453.48,141,442.39,184.52,381,204.79Z"/><path class="cls-2" d="M258.66,107.5c32.85,12.68,59.44,58.76,58.6,101.55C272.19,191.59,242.4,167,258.66,107.5Z"/><path class="cls-3" d="M480.94,241.89c.88-12.82,2.42-25.46,2.49-38.1.15-29.66,16.9-49.9,37-68.79C543.56,177.44,539.26,219.06,480.94,241.89Z"/><path class="cls-3" d="M215.67,242.29c-42.42-18-61.9-55.46-42.12-106.33,23.14,16.37,41.42,35.36,42.07,65.71C215.92,215.22,215.67,228.78,215.67,242.29Z"/><path class="cls-3" d="M494.5,299.12c7.87-32.71,33.62-66.14,91.24-67.43-5.56,20.83-17.15,37.3-32.49,51.5C536.44,298.76,514.44,294.33,494.5,299.12Z"/><path class="cls-3" d="M450.16,184.06c19.16,46.58,12.8,71.26-26,103.13C406.76,244.2,413.48,217.13,450.16,184.06Z"/><path class="cls-3" d="M187.5,294.68c-48-1.34-84-30.1-83.73-66.54C146,231.94,174.93,252.65,187.5,294.68Z"/><path class="cls-4" d="M256.65,396.42c-9,8.69-17.9,18.32-27.89,26.58-21.65,17.92-43.44,17.75-66.44,1C186.8,394,218.71,386.13,256.65,396.42Z"/><path class="cls-3" d="M239.85,188.26c28.74,27.79,45.82,58,26.18,97.25C231.45,252.71,224.7,231.7,239.85,188.26Z"/><path class="cls-4" d="M215.81,347.77c-41.84,14.88-75.56,2.8-97.16-33.5C149,304.18,194.62,319.65,215.81,347.77Z"/><path class="cls-4" d="M528.69,423.22c-33.08,22.19-68.46,12-91-25.57C465.48,383.45,496.11,391.94,528.69,423.22Z"/><path class="cls-4" d="M471.77,350.76c22.22-38.57,59.1-38.33,96-39.4C555.4,343.49,513.75,360.66,471.77,350.76Z"/><path class="cls-4" d="M143.51,364.1C115.25,380.62,81,375.74,56.22,351.67,88.64,334.19,117.92,337.18,143.51,364.1Z"/><path class="cls-3" d="M296.54,232.08c28.3,18.37,34.63,40.26,24.29,82.9-21.21-12-30.89-32.71-26.8-55.91C295.56,250.45,295.7,241.58,296.54,232.08Z"/><path class="cls-3" d="M394.63,239.55c9.68,49,9.41,51.36-9.55,84.64C364.8,300.61,368.69,263.23,394.63,239.55Z"/><path class="cls-4" d="M559,363.48c21-20,53.67-25.4,79.37-13.56C615.84,377.5,591.71,381.78,559,363.48Z"/><path class="cls-4" d="M582.46,389.42c-25.41,19.63-52,17.12-72.65-6.86C532.79,367.87,567.37,372.82,582.46,389.42Z"/><path class="cls-4" d="M180.71,380.85c-21.39,28.47-48.21,35.47-73.17,18.81C128.5,380.52,152.11,372,180.71,380.85Z"/></g></g><g id="Calque_6" data-name="Calque 6"><ellipse class="cls-5" cx="344.99" cy="346.11" rx="328.65" ry="330.11"/></g></svg>