<svg id="Calque_2" data-name="Calque 2" xmlns="http://www.w3.org/2000/svg" viewBox="0 0 439.76 440.99"><defs><style>.cls-1{fill:#9f9f9f;}.cls-2{fill:#ececec;}.cls-3{fill:#d4d4d4;}.cls-4{fill:#ccc;}</style></defs><g id="Calque_1" data-name="Calque 1"><path class="cls-1" d="M216.56,440.93C87.29,436.49-7.47,328.41.46,205.13,7.93,89.06,107.27-6.1,230.08.31,350.87,6.6,442.45,102.43,439.7,226.83,436.91,352.87,327.61,443.61,216.56,440.93Zm43.65-204.06,86.92-11.24c-2.83,2.2-5.81,4.33-9.12,5.27-11.46,3.24-23,6.37-34.59,9-15.09,3.4-30.62,5-44.71,12.2a19.65,19.65,0,0,0-10.45,11.72c-7.79,22.27-6,44.49-.74,66.87a31,31,0,0,0,14.78,20.24c6.43,3.84,13.22,7.51,20.33,9.68,19.41,5.9,39.06,11,58.67,16.25,1.68.45,4.35.09,5.53-1,18.22-16.82,35.76-34.15,47.9-56.26C413.18,286,421,250.06,420.25,212c-.5-27.11-7.94-52.61-18.67-77.06C391.37,111.63,376,91.74,357.27,74.45c-47.68-44-103.38-62.83-167.8-52.7-37.25,5.86-70,22.12-99.48,45.73C65.21,87.31,47.5,112.08,35.31,140.8c-15.11,35.58-18.69,72.82-12.88,111,3,19.55,7.76,39,16.93,56.18C53,333.5,69.77,357.23,93.19,375.22c1.57,1.2,4.29,2.09,6.09,1.62,20.07-5.18,40.16-10.32,60.05-16.15,18.84-5.53,33-16.83,37.93-36.61a110.94,110.94,0,0,0,1.7-47.44c-4.39-23.29-12.21-31.94-35.82-35.53-14.43-2.2-29.28-1.52-43.9-2.64-6.8-.52-13.5-2.26-20.25-3.44l.34-2.3c25.7-2.17,51.31-7.51,79-.62-27.5-23.07-51.17-47-62.27-80.45l64.56,58.09c-1.07-9.12-2.26-19.32-3.45-29.53l1.08-.13c11,23.57,21.93,47.14,33.12,71.18.71-26.24,1.15-51.6,2.19-76.93A255.12,255.12,0,0,1,217,140c1.35-7.61,4.91-14.82,7.48-22.2l1.4.5,2.46,166a14,14,0,0,0,1.44-6.17c1.18-15.86,3.86-31.63,13.66-44.44,9.5-12.42,20.44-23.81,31.37-35,9.73-10,20.37-19.12,30.53-28.71,4.46-4.21,8.73-8.62,13.08-12.94l2.21,1.72c-5.19,8.66-9.57,18-15.77,25.82-10.24,13-21.73,25-32.57,37.49C268,227,263.88,232.34,260.21,236.87ZM232.05,346.68l-2.12,1.59c3.73,8.28,6.91,16.87,11.29,24.79,8.77,15.86,22.92,26.4,37.75,36.06,6.64,4.33,8.22,4.19,16.29-1C267.31,394.48,244.14,376.26,232.05,346.68Zm39.05,25.59-.76.43a21.11,21.11,0,0,1,3.5,2.2c10.7,10,24.4,14.43,37.31,20.33,5.88,2.69,8.86,1.79,13.93-3.72Zm-131.59,32.5c9.23,4.59,10,5,13.85,1.88,8.63-6.89,17.14-14,25.45-21.23,2.58-2.27,4.37-5.45,6.32-7.95Zm72-37.8-1.21-.43c-5.61,9.25-10.41,19.15-17.07,27.58s-15.05,15.18-22.69,22.68c3.82,1,8.93,1.82,10.78-.25a209.76,209.76,0,0,0,21-27.36C206.56,382.5,208.55,374.43,211.52,367Zm47.71,52.08-31.11-29.67c1.13,3.55,1.63,7.47,3.53,10.52,3.3,5.29,7.71,9.88,11.2,15.06C247.3,421.56,252.83,422,259.23,419.05ZM115,392.1c4.37,3.95,8.26,5.69,13.56,2.48,5.69-3.45,11.81-6.18,17.64-9.41a65.9,65.9,0,0,0,6.37-4.6l-.75-1.11ZM206,422h14.46L213.11,405C210.51,411.22,208.5,416.07,206,422Z"/><path d="M260.21,236.87c3.67-4.53,7.74-9.84,12.11-14.88,10.84-12.51,22.33-24.51,32.57-37.49,6.2-7.86,10.58-17.16,15.77-25.82L318.45,157c-4.35,4.32-8.62,8.73-13.08,12.94-10.16,9.59-20.8,18.71-30.53,28.71-10.93,11.24-21.87,22.63-31.37,35-9.8,12.81-12.48,28.58-13.66,44.44a14,14,0,0,1-1.44,6.17l-2.46-166-1.4-.5c-2.57,7.38-6.13,14.59-7.48,22.2a255.12,255.12,0,0,0-3.5,34.37c-1,25.33-1.48,50.69-2.19,76.93-11.19-24-22.16-47.61-33.12-71.18l-1.08.13c1.19,10.21,2.38,20.41,3.45,29.53L116,151.66c11.1,33.46,34.77,57.38,62.27,80.45-27.66-6.89-53.27-1.55-79,.62L99,235c6.75,1.18,13.45,2.92,20.25,3.44,14.62,1.12,29.47.44,43.9,2.64,23.61,3.59,31.43,12.24,35.82,35.53a110.94,110.94,0,0,1-1.7,47.44c-4.88,19.78-19.09,31.08-37.93,36.61-19.89,5.83-40,11-60.05,16.15-1.8.47-4.52-.42-6.09-1.62C69.77,357.23,53,333.5,39.36,308c-9.17-17.2-13.95-36.63-16.93-56.18-5.81-38.18-2.23-75.42,12.88-111C47.5,112.08,65.21,87.31,90,67.48c29.51-23.61,62.23-39.87,99.48-45.73,64.42-10.13,120.12,8.71,167.8,52.7,18.74,17.29,34.1,37.18,44.31,60.46,10.73,24.45,18.17,50,18.67,77.06.71,38.09-7.07,74-25.52,107.63-12.14,22.11-29.68,39.44-47.9,56.26-1.18,1.09-3.85,1.45-5.53,1-19.61-5.23-39.26-10.35-58.67-16.25-7.11-2.17-13.9-5.84-20.33-9.68a31,31,0,0,1-14.78-20.24c-5.22-22.38-7.05-44.6.74-66.87a19.65,19.65,0,0,1,10.45-11.72c14.09-7.19,29.62-8.8,44.71-12.2,11.62-2.63,23.13-5.76,34.59-9,3.31-.94,6.29-3.07,9.12-5.27ZM217.69,41.28c-5.44,11.36-12,22-13.24,34.9-1.55,15.72,9.23,26.33,15.73,38.65C242.55,92.52,240.91,63.67,217.69,41.28Zm25.43,88.87c39.17-12.94,46.24-40.68,37.24-64.27C254.77,79.33,243.07,101.27,243.12,130.15ZM165.05,68.07c-10.37,37.94,8.64,53.66,37.39,64.8C203,105.57,186,76.16,165.05,68.07Zm141.84,85.75c37.21-14.56,40-41.12,25.22-68.2-12.85,12-23.54,25-23.63,43.89C308.43,137.58,307.45,145.64,306.89,153.82Zm-169.27.26c0-8.62.16-17.28,0-25.92-.42-19.37-12.08-31.48-26.85-41.93C98.12,118.69,110.55,142.56,137.62,154.08Zm177.92,36.26c12.73-3.06,26.76-.23,37.49-10.16,9.79-9.06,17.18-19.57,20.73-32.86C337,148.14,320.56,169.47,315.54,190.34Zm-28.29-73.42c-23.41,21.11-27.7,38.38-16.58,65.81C295.41,162.4,299.47,146.64,287.25,116.92ZM119.64,187.51c-8-26.82-26.48-40-53.42-42.46C66.07,168.3,89,186.65,119.64,187.51Zm44.13,64.92c-24.21-6.57-44.57-1.56-60.19,17.61,14.67,10.68,28.58,10.78,42.39-.65C152.34,264.12,158,258,163.77,252.43ZM153.05,119.6c-9.67,27.72-5.36,41.13,16.7,62.06C182.29,156.58,171.39,137.34,153.05,119.6ZM137.71,221.39c-13.52-17.95-42.62-27.82-62-21.38C89.49,223.17,111,230.88,137.71,221.39Zm199.65,48.14c-20.79-20-40.34-25.38-58-16.32C293.67,277.21,316.25,283.69,337.36,269.53ZM301,223.3c26.79,6.31,53.37-4.65,61.25-25.15C338.75,198.83,315.21,198.68,301,223.3ZM91.57,231.81c-16.33-17.18-35-19.09-55.69-7.94C51.67,239.23,73.54,242.35,91.57,231.81Zm97.65-84.25c-.53,6.07-.62,11.73-1.6,17.23-2.61,14.8,3.57,28,17.1,35.67C211.32,173.25,207.28,159.29,189.22,147.56Zm62.59,4.77c-16.55,15.11-19,39-6.09,54C257.82,185.11,258,183.62,251.81,152.33Zm104.88,79.08c20.88,11.68,36.28,9,50.64-8.65C390.94,215.2,370.12,218.63,356.69,231.41Zm15,16.55c-9.63-10.59-31.7-13.75-46.36-4.37C338.5,258.89,355.45,260.49,371.67,248ZM115.31,242.5c-18.25-5.68-33.31-.22-46.69,12C84.55,265.12,101.66,260.66,115.31,242.5Z"/><path d="M232.05,346.68c12.09,29.58,35.26,47.8,63.21,61.44-8.07,5.19-9.65,5.33-16.29,1-14.83-9.66-29-20.2-37.75-36.06-4.38-7.92-7.56-16.51-11.29-24.79Z"/><path d="M271.1,372.27l54,19.24c-5.07,5.51-8.05,6.41-13.93,3.72-12.91-5.9-26.61-10.34-37.31-20.33a21.11,21.11,0,0,0-3.5-2.2Z"/><path d="M139.51,404.77l45.62-27.3c-1.95,2.5-3.74,5.68-6.32,7.95-8.31,7.27-16.82,14.34-25.45,21.23C149.51,409.72,148.74,409.36,139.51,404.77Z"/><path d="M211.52,367c-3,7.46-5,15.53-9.16,22.22a209.76,209.76,0,0,1-21,27.36c-1.85,2.07-7,1.24-10.78.25,7.64-7.5,16.11-14.35,22.69-22.68s11.46-18.33,17.07-27.58Z"/><path d="M259.23,419.05c-6.4,3-11.93,2.51-16.38-4.09-3.49-5.18-7.9-9.77-11.2-15.06-1.9-3-2.4-7-3.53-10.52Z"/><path d="M115,392.1l36.82-12.64.75,1.11a65.9,65.9,0,0,1-6.37,4.6c-5.83,3.23-11.95,6-17.64,9.41C123.28,397.79,119.39,396.05,115,392.1Z"/><path d="M206,422c2.49-6,4.5-10.82,7.1-17.06L220.47,422Z"/><path class="cls-2" d="M217.69,41.28c23.22,22.39,24.86,51.24,2.49,73.55-6.5-12.32-17.28-22.93-15.73-38.65C205.71,63.32,212.25,52.64,217.69,41.28Z"/><path class="cls-2" d="M243.12,130.15c-.05-28.88,11.65-50.82,37.24-64.27C289.36,89.47,282.29,117.21,243.12,130.15Z"/><path class="cls-2" d="M165.05,68.07c21,8.09,37.93,37.5,37.39,64.8C173.69,121.73,154.68,106,165.05,68.07Z"/><path class="cls-3" d="M306.89,153.82c.56-8.18,1.54-16.24,1.59-24.31.09-18.92,10.78-31.84,23.63-43.89C346.85,112.7,344.1,139.26,306.89,153.82Z"/><path class="cls-3" d="M137.62,154.08c-27.07-11.52-39.5-35.39-26.88-67.85,14.77,10.45,26.43,22.56,26.85,41.93C137.78,136.8,137.62,145.46,137.62,154.08Z"/><path class="cls-3" d="M315.54,190.34c5-20.87,21.45-42.2,58.22-43-3.55,13.29-10.94,23.8-20.73,32.86C342.3,190.11,328.27,187.28,315.54,190.34Z"/><path class="cls-3" d="M287.25,116.92c12.22,29.72,8.16,45.48-16.58,65.81C259.55,155.3,263.84,138,287.25,116.92Z"/><path class="cls-3" d="M119.64,187.51C89,186.65,66.07,168.3,66.22,145.05,93.16,147.48,111.62,160.69,119.64,187.51Z"/><path class="cls-4" d="M163.77,252.43c-5.77,5.54-11.43,11.69-17.8,17-13.81,11.43-27.72,11.33-42.39.65C119.2,250.87,139.56,245.86,163.77,252.43Z"/><path class="cls-3" d="M153.05,119.6c18.34,17.74,29.24,37,16.7,62.06C147.69,160.73,143.38,147.32,153.05,119.6Z"/><path class="cls-4" d="M137.71,221.39c-26.7,9.49-48.22,1.78-62-21.38C95.09,193.57,124.19,203.44,137.71,221.39Z"/><path class="cls-4" d="M337.36,269.53c-21.11,14.16-43.69,7.68-58-16.32C297,244.15,316.57,249.57,337.36,269.53Z"/><path class="cls-4" d="M301,223.3c14.18-24.62,37.72-24.47,61.25-25.15C354.4,218.65,327.82,229.61,301,223.3Z"/><path class="cls-4" d="M91.57,231.81c-18,10.54-39.9,7.42-55.69-7.94C56.56,212.72,75.24,214.63,91.57,231.81Z"/><path class="cls-3" d="M189.22,147.56c18.06,11.73,22.1,25.69,15.5,52.9-13.53-7.64-19.71-20.87-17.1-35.67C188.6,159.29,188.69,153.63,189.22,147.56Z"/><path class="cls-3" d="M251.81,152.33c6.18,31.29,6,32.78-6.09,54C232.78,191.29,235.26,167.44,251.81,152.33Z"/><path class="cls-4" d="M356.69,231.41c13.43-12.78,34.25-16.21,50.64-8.65C393,240.36,377.57,243.09,356.69,231.41Z"/><path class="cls-4" d="M371.67,248c-16.22,12.53-33.17,10.93-46.36-4.37C340,234.21,362,237.37,371.67,248Z"/><path class="cls-4" d="M115.31,242.5c-13.65,18.16-30.76,22.62-46.69,12C82,242.28,97.06,236.82,115.31,242.5Z"/></g></svg>